<?xml version="1.0" encoding="UTF-8" standalone="no"?>
<!DOCTYPE svg PUBLIC "-//W3C//DTD SVG 1.1//EN"
 "http://www.w3.org/Graphics/SVG/1.1/DTD/svg11.dtd">
<!-- Generated by graphviz version 2.43.0 (0)
 -->
<!-- Title: reactive_network Pages: 1 -->
<svg width="647pt" height="346pt"
 viewBox="0.00 0.00 647.34 345.87" xmlns="http://www.w3.org/2000/svg" xmlns:xlink="http://www.w3.org/1999/xlink">
<g id="graph0" class="graph" transform="scale(1 1) rotate(0) translate(4 341.87)">
<title>reactive_network</title>
<polygon fill="white" stroke="transparent" points="-4,4 -4,-341.87 643.34,-341.87 643.34,4 -4,4"/>
<!-- Project -->
<g id="node1" class="node">
<title>Project</title>
<ellipse fill="none" stroke="black" cx="34.5" cy="-112.87" rx="28.75" ry="28.75"/>
<ellipse fill="none" stroke="black" cx="34.5" cy="-112.87" rx="32.74" ry="32.74"/>
<text text-anchor="middle" x="34.5" y="-110.67" font-family="Times,serif" font-size="9.00">Project</text>
</g>
<!-- trial_onc -->
<g id="node7" class="node">
<title>trial_onc</title>
<polygon fill="none" stroke="black" points="370.46,-77.87 313.46,-77.87 313.46,-41.87 370.46,-41.87 370.46,-77.87"/>
<text text-anchor="middle" x="341.96" y="-57.67" font-family="Times,serif" font-size="9.00">trial_onc</text>
</g>
<!-- Project&#45;&gt;trial_onc -->
<g id="edge3" class="edge">
<title>Project&#45;&gt;trial_onc</title>
<path fill="none" stroke="black" stroke-width="3" d="M57.56,-88.76C66.33,-82.7 76.75,-77.14 87,-73.87 160.83,-50.31 252.43,-48.21 302.98,-52.12"/>
<polygon fill="black" stroke="black" stroke-width="3" points="302.85,-55.63 313.13,-53.04 303.48,-48.65 302.85,-55.63"/>
</g>
<!-- trial_imm -->
<g id="node8" class="node">
<title>trial_imm</title>
<polygon fill="none" stroke="black" points="371.96,-158.87 311.96,-158.87 311.96,-122.87 371.96,-122.87 371.96,-158.87"/>
<text text-anchor="middle" x="341.96" y="-138.67" font-family="Times,serif" font-size="9.00">trial_imm</text>
</g>
<!-- Project&#45;&gt;trial_imm -->
<g id="edge8" class="edge">
<title>Project&#45;&gt;trial_imm</title>
<path fill="none" stroke="black" stroke-width="3" d="M67.09,-107.17C73.67,-107.6 80.56,-108.26 87,-108.87 162.92,-115.99 251.65,-123.94 301.58,-131.12"/>
<polygon fill="black" stroke="black" stroke-width="3" points="301.21,-134.61 311.62,-132.64 302.26,-127.69 301.21,-134.61"/>
</g>
<!-- scientist -->
<g id="node2" class="node">
<title>scientist</title>
<ellipse fill="gold" stroke="black" cx="34.5" cy="-197.87" rx="32.16" ry="32.16"/>
<text text-anchor="middle" x="34.5" y="-195.67" font-family="Times,serif" font-size="9.00">scientist</text>
</g>
<!-- scientist&#45;&gt;trial_onc -->
<g id="edge4" class="edge">
<title>scientist&#45;&gt;trial_onc</title>
<path fill="none" stroke="darkgreen" d="M57.6,-174.66C76.89,-155.7 106.49,-129.56 137,-113.87 191.05,-86.07 260.73,-71.62 303.06,-64.89"/>
<polygon fill="darkgreen" stroke="darkgreen" points="303.85,-68.31 313.21,-63.35 302.79,-61.39 303.85,-68.31"/>
</g>
<!-- scientist&#45;&gt;trial_imm -->
<g id="edge9" class="edge">
<title>scientist&#45;&gt;trial_imm</title>
<path fill="none" stroke="darkgreen" d="M66.89,-193.79C82.58,-191.64 101.83,-188.84 119,-185.87 183.34,-174.73 257.61,-159.11 301.85,-149.5"/>
<polygon fill="darkgreen" stroke="darkgreen" points="302.59,-152.92 311.62,-147.37 301.1,-146.08 302.59,-152.92"/>
</g>
<!-- budget -->
<g id="node3" class="node">
<title>budget</title>
<ellipse fill="none" stroke="black" cx="34.5" cy="-28.87" rx="28.74" ry="28.74"/>
<text text-anchor="middle" x="34.5" y="-26.67" font-family="Times,serif" font-size="9.00">budget</text>
</g>
<!-- budget&#45;&gt;trial_onc -->
<g id="edge5" class="edge">
<title>budget&#45;&gt;trial_onc</title>
<path fill="none" stroke="#666666" d="M63.33,-24.18C79.57,-22.04 100.45,-20.29 119,-21.87 184.28,-27.41 259.19,-41.98 303.17,-51.38"/>
<polygon fill="#666666" stroke="#666666" points="302.61,-54.84 313.12,-53.54 304.09,-48 302.61,-54.84"/>
<text text-anchor="middle" x="103" y="-25.67" font-family="Times,serif" font-size="14.00">20.0</text>
</g>
<!-- budget&#45;&gt;trial_imm -->
<g id="edge10" class="edge">
<title>budget&#45;&gt;trial_imm</title>
<path fill="none" stroke="#666666" d="M58.81,-44.53C78.83,-57.39 108.83,-75.32 137,-86.87 192.3,-109.53 259.97,-125.24 301.77,-133.66"/>
<polygon fill="#666666" stroke="#666666" points="301.33,-137.14 311.82,-135.64 302.68,-130.27 301.33,-137.14"/>
<text text-anchor="middle" x="103" y="-81.67" font-family="Times,serif" font-size="14.00">20.0</text>
</g>
<!-- launch -->
<g id="node4" class="node">
<title>launch</title>
<ellipse fill="none" stroke="black" cx="611.63" cy="-99.87" rx="27.93" ry="27.93"/>
<text text-anchor="middle" x="611.63" y="-97.67" font-family="Times,serif" font-size="9.00">launch</text>
</g>
<!-- intake_onc -->
<g id="node5" class="node">
<title>intake_onc</title>
<polygon fill="none" stroke="black" points="67.5,-283.87 1.5,-283.87 1.5,-247.87 67.5,-247.87 67.5,-283.87"/>
<text text-anchor="middle" x="34.5" y="-263.67" font-family="Times,serif" font-size="9.00">intake_onc</text>
</g>
<!-- @structured :Project program = :Onc phase = :Active value = 100.0 -->
<g id="node9" class="node">
<title>@structured :Project program = :Onc phase = :Active value = 100.0</title>
<ellipse fill="none" stroke="black" cx="341.96" cy="-265.87" rx="193.98" ry="18"/>
<text text-anchor="middle" x="341.96" y="-263.67" font-family="Times,serif" font-size="9.00">@structured :Project program = :Onc phase = :Active value = 100.0</text>
</g>
<!-- intake_onc&#45;&gt;@structured :Project program = :Onc phase = :Active value = 100.0 -->
<g id="edge1" class="edge">
<title>intake_onc&#45;&gt;@structured :Project program = :Onc phase = :Active value = 100.0</title>
<path fill="none" stroke="black" d="M67.61,-265.87C85.96,-265.87 110.69,-265.87 137.8,-265.87"/>
<polygon fill="black" stroke="black" points="137.89,-269.37 147.89,-265.87 137.89,-262.37 137.89,-269.37"/>
</g>
<!-- intake_imm -->
<g id="node6" class="node">
<title>intake_imm</title>
<polygon fill="none" stroke="black" points="69,-337.87 0,-337.87 0,-301.87 69,-301.87 69,-337.87"/>
<text text-anchor="middle" x="34.5" y="-317.67" font-family="Times,serif" font-size="9.00">intake_imm</text>
</g>
<!-- @structured :Project program = :Immuno phase = :Active value = 100.0 -->
<g id="node10" class="node">
<title>@structured :Project program = :Immuno phase = :Active value = 100.0</title>
<ellipse fill="none" stroke="black" cx="341.96" cy="-319.87" rx="204.92" ry="18"/>
<text text-anchor="middle" x="341.96" y="-317.67" font-family="Times,serif" font-size="9.00">@structured :Project program = :Immuno phase = :Active value = 100.0</text>
</g>
<!-- intake_imm&#45;&gt;@structured :Project program = :Immuno phase = :Active value = 100.0 -->
<g id="edge2" class="edge">
<title>intake_imm&#45;&gt;@structured :Project program = :Immuno phase = :Active value = 100.0</title>
<path fill="none" stroke="black" d="M69.06,-319.87C84.65,-319.87 104.61,-319.87 126.62,-319.87"/>
<polygon fill="black" stroke="black" points="126.87,-323.37 136.87,-319.87 126.87,-316.37 126.87,-323.37"/>
</g>
<!-- trial_onc&#45;&gt;Project -->
<g id="edge6" class="edge">
<title>trial_onc&#45;&gt;Project</title>
<path fill="none" stroke="black" d="M313.13,-63.97C265.55,-66.02 166.08,-66.63 87,-91.87 82.9,-93.18 78.77,-94.85 74.73,-96.7"/>
<polygon fill="black" stroke="black" points="72.94,-93.69 65.52,-101.25 76.03,-99.96 72.94,-93.69"/>
</g>
<!-- trial_onc&#45;&gt;launch -->
<g id="edge7" class="edge">
<title>trial_onc&#45;&gt;launch</title>
<path fill="none" stroke="black" d="M370.6,-64C419.06,-71.24 519.37,-86.23 573.71,-94.35"/>
<polygon fill="black" stroke="black" points="573.53,-97.86 583.94,-95.88 574.57,-90.94 573.53,-97.86"/>
</g>
<!-- trial_imm&#45;&gt;Project -->
<g id="edge11" class="edge">
<title>trial_imm&#45;&gt;Project</title>
<path fill="none" stroke="black" d="M311.62,-143.9C264.34,-143.08 168.32,-134.5 87,-126.87 83.29,-126.52 79.44,-126.15 75.58,-125.75"/>
<polygon fill="black" stroke="black" points="75.79,-122.25 65.45,-124.55 74.97,-129.2 75.79,-122.25"/>
</g>
<!-- trial_imm&#45;&gt;launch -->
<g id="edge12" class="edge">
<title>trial_imm&#45;&gt;launch</title>
<path fill="none" stroke="black" d="M372.22,-136.82C414.87,-130.86 496.6,-119.2 565.92,-107.87 568.6,-107.43 571.37,-106.96 574.15,-106.49"/>
<polygon fill="black" stroke="black" points="574.93,-109.91 584.17,-104.74 573.72,-103.01 574.93,-109.91"/>
</g>
</g>
</svg>
